<svg xmlns="http://www.w3.org/2000/svg" width="120" height="120" viewBox="0 0 120 120">
  <g fill="none" fill-rule="evenodd">
    <circle cx="60" cy="60" r="60" fill="#FFF"/>
    <g fill="#102842" fill-rule="nonzero" stroke="#102842" transform="translate(30 30)">
      <path d="M19.7323468 18L43.2676532 18C43.6721172 18 44 17.5522847 44 17 44 16.4477153 43.6721172 16 43.2676532 16L19.7323468 16C19.3278828 16 19 16.4477153 19 17 19 17.5522847 19.3278828 18 19.7323468 18zM19.7323468 24L43.2676532 24C43.6721172 24 44 23.5522847 44 23 44 22.4477153 43.6721172 22 43.2676532 22L19.7323468 22C19.3278828 22 19 22.4477153 19 23 19 23.5522847 19.3278828 24 19.7323468 24L19.7323468 24zM19.7323468 30L43.2676532 30C43.6721172 30 44 29.5522847 44 29 44 28.4477153 43.6721172 28 43.2676532 28L19.7323468 28C19.3278828 28 19 28.4477153 19 29 19 29.5522847 19.3278828 30 19.7323468 30L19.7323468 30z"/>
      <path d="M61,42.3749874 C61,40.2909364 59.3924243,38.5652102 57.3267456,38.4325507 C55.2610668,38.2998913 53.4484361,39.8059487 53.1857747,41.8731521 C52.9231134,43.9403554 54.3008072,45.8573501 56.333128,46.2525433 L56.333128,53.5481456 L50.8268862,53.5481456 L50.8268862,9.48529415 C50.8268862,9.0716347 50.4938297,8.73629746 50.0829837,8.73629746 L43.1971748,8.73629746 L43.1971748,0.748996696 C43.1971748,0.335337243 42.8641183,0 42.4532724,0 L19.5646341,0 C19.1537882,0 18.8207317,0.335337243 18.8207317,0.748996696 L18.8207317,8.73629746 L11.9343028,8.73629746 C11.5234569,8.73629746 11.1904004,9.0716347 11.1904004,9.48529415 L11.1904004,29.4835059 L0.416957317,34.7902724 C0.161765382,34.91599 0,35.1770742 0,35.4631211 L0,46.0227261 C0,47.1924093 0.317398374,48.4984099 0.917479675,49.7994171 C1.68617886,51.4655603 2.83178862,52.9040084 4.05959959,53.7461304 L11.529,58.8700168 C11.7816818,59.0433277 12.1139524,59.0433277 12.3666341,58.8700168 L17.9411911,55.046139 L60.2560976,55.046139 C60.6669435,55.046139 61,54.7108017 61,54.2971423 C61,53.8834828 60.6669435,53.5481456 60.2560976,53.5481456 L57.8209329,53.5481456 L57.8209329,46.2525433 C59.6650914,45.8915323 60.9973614,44.2665426 61,42.3749874 Z M20.3085366,1.49799339 L41.7093699,1.49799339 L41.7093699,8.73629746 L20.3085366,8.73629746 L20.3085366,1.49799339 Z M49.3397012,10.2342909 L49.3397012,53.5481456 L41.9255976,53.5481456 L41.9255976,49.9694394 C41.9255976,49.5557799 41.5925411,49.2204427 41.1816951,49.2204427 L37.4745813,49.2204427 L37.4745813,37.8481762 C37.4745813,37.4345167 37.1415248,37.0991795 36.7306789,37.0991795 L25.2862358,37.0991795 C24.8753898,37.0991795 24.5423333,37.4345167 24.5423333,37.8481762 L24.5423333,49.2204427 L23.2314533,49.2204427 C23.6482747,48.2053417 23.873596,47.1209311 23.8958821,46.0227261 L23.8958821,35.4794741 C23.895905,35.1937308 23.7344508,34.9328699 23.4796687,34.8069999 L12.6782053,29.4706482 L12.6782053,10.2342909 L49.3397012,10.2342909 Z M22.509248,50.7184361 L40.4372967,50.7184361 L40.4372967,53.5481456 L20.1080549,53.5481456 C21.0322297,52.8437142 21.8626728,51.8424305 22.509248,50.7184361 Z M31.7522358,49.1757526 L31.7522358,38.5975474 L35.9867764,38.5975474 L35.9867764,49.2208172 L26.0301382,49.2208172 L26.0301382,38.5975474 L30.2644309,38.5975474 L30.2644309,49.1757526 L31.7522358,49.1757526 Z M11.9475691,57.3448099 L4.89735772,52.5081637 C3.88478252,51.8137189 2.92601626,50.5967241 2.2669187,49.1682626 C1.7644126,48.0794711 1.48780488,46.9623425 1.48780488,46.0227261 L1.48780488,35.930495 L11.9474451,30.7776474 L22.4080772,35.9457246 L22.4080772,46.022851 C22.4080772,48.2708397 20.84675,51.2408613 18.9985244,52.5082885 L11.9475691,57.3448099 Z M54.6418659,42.3749874 C54.6418157,41.383299 55.2350927,40.4892307 56.1450474,40.109693 C57.0550021,39.7301553 58.1024302,39.9398935 58.7989081,40.6411052 C59.495386,41.342317 59.7037511,42.3969071 59.3268411,43.3131125 C58.9499312,44.2293179 58.0619739,44.8267032 57.0770305,44.8267032 C55.732826,44.8251212 54.6435055,43.728397 54.6418659,42.3749874 Z"/>
      <path d="M15.7350565,41.1964485 L10.1389828,46.3206104 L7.26457028,43.6887538 C6.96908328,43.4210893 6.49878999,43.4277801 6.21207789,43.7037276 C5.92536579,43.979675 5.92993494,44.4212226 6.22230342,44.6918886 L9.61816037,47.8009057 C9.90804941,48.0663648 10.3705382,48.0663648 10.6604272,47.8009057 L16.7776966,42.1995833 C17.0700651,41.9289174 17.0746342,41.4873698 16.7879221,41.2114223 C16.50121,40.9354749 16.0309167,40.928784 15.7354297,41.1964485 L15.7350565,41.1964485 Z"/>
    </g>
  </g>
</svg>
