<svg xmlns="http://www.w3.org/2000/svg" width="120" height="120" viewBox="0 0 120 120">
  <g fill="none" fill-rule="evenodd">
    <circle cx="60" cy="60" r="60" fill="#FFF"/>
    <g fill-rule="nonzero" transform="translate(32 30)">
      <path fill="#072844" stroke="#F6F6F6" stroke-width="1.3" d="M55.4357849,49.5664252 L50.9198957,49.5664252 L50.9198957,24.0946818 L53.0613063,24.0946818 C55.2340011,24.0946818 57,22.3339765 57,20.0711038 C57,17.9049218 55.2340011,16.142657 53.0613063,16.142657 L52.4105928,16.142657 L29.3931668,0.27603616 C28.8550768,-0.0920120533 28.1496158,-0.0920120533 27.6115258,0.27603616 L4.59253568,16.1442165 L3.94182217,16.1442165 C1.76912733,16.1442165 0,17.9064813 0,20.169354 C0,22.3355361 1.76912733,24.0962413 3.94182217,24.0962413 L6.08323271,24.0962413 L6.08323271,49.5679848 L1.56421515,49.5679848 C0.702332602,49.5679848 0,50.2666526 0,51.1275111 L0,57.4404737 C0,58.3028917 0.702332602,59 1.56421515,59 L55.4342206,59 C56.2992316,59 56.9984358,58.3028917 56.9984358,57.4404737 L56.9984358,51.1275111 C57,50.265093 56.2992316,49.5664252 55.4357849,49.5664252 Z M47.7914654,49.5664252 L43.9513172,49.5664252 L43.9513172,24.0946818 L47.7914654,24.0946818 L47.7914654,49.5664252 Z M33.5524149,49.5664252 L33.5524149,24.0946818 L40.8228869,24.0946818 L40.8228869,49.5664252 L33.5524149,49.5664252 L33.5524149,49.5664252 Z M16.1802415,49.5664252 L16.1802415,24.0946818 L23.4507135,24.0946818 L23.4507135,49.5664252 L16.1802415,49.5664252 L16.1802415,49.5664252 Z M26.5791438,24.0946818 L30.4224204,24.0946818 L30.4224204,49.5664252 L26.5791438,49.5664252 L26.5791438,24.0946818 Z M28.5015642,3.45435081 L46.9123765,16.1442165 L10.0938804,16.1442165 L28.5015642,3.45435081 Z M3.1284303,20.0711038 C3.1284303,19.6250793 3.49132821,19.2617097 3.94182217,19.2617097 L53.0613063,19.2617097 C53.5071076,19.2617097 53.8715697,19.6235198 53.8715697,20.1677945 C53.8715697,20.6122595 53.5086718,20.9756291 53.0613063,20.9756291 L3.94182217,20.9756291 C3.49289243,20.9756291 3.1284303,20.613819 3.1284303,20.0711038 Z M9.21166301,24.0946818 L13.0518112,24.0946818 L13.0518112,49.5664252 L9.21166301,49.5664252 L9.21166301,24.0946818 Z M53.8715697,55.8793878 L3.1284303,55.8793878 L3.1284303,52.6854779 L53.8700055,52.6854779 L53.8700055,55.8793878 L53.8715697,55.8793878 Z"/>
      <circle cx="28.5" cy="10.5" r="3.5" fill="#002846"/>
    </g>
  </g>
</svg>
