<svg xmlns="http://www.w3.org/2000/svg" width="120" height="120" viewBox="0 0 120 120">
  <g fill="none" fill-rule="evenodd">
    <circle cx="60" cy="60" r="60" fill="#FFF"/>
    <g fill="#102842" fill-rule="nonzero" transform="translate(31 30)">
      <path d="M53.8531924 32.53896C54.0325989 32.2526298 54.0482847 31.8954451 53.8963284 31.5945558L51.9356016 27.7121133C51.7689398 27.3840469 51.4297341 27.1763362 51.0581763 27.1763362L48.8817696 27.1763362 48.3915879 25.235115 50.0778129 25.235115 50.0778129 23.2938937 48.1170862 23.2938937 48.1170862 17.47023 50.0778129 17.47023 50.0778129 15.5290087 48.3915879 15.5290087 48.8817696 13.5868168 51.3473835 13.5868168C51.79639 13.5868168 52.187555 13.2839863 52.298336 12.8530352 52.4091171 12.4220841 52.2071622 11.9726914 51.8120758 11.7610982L29.9548739.114741323C29.6735097-.0337621026 29.3333236-.0386151557 29.0480378.103093996L5.80950394 11.7494509C5.40461386 11.9523085 5.19285537 12.4046131 5.29873461 12.8413879 5.40461386 13.2781627 5.79871994 13.5868168 6.25262819 13.5868168L9.11921075 13.5868168 9.60841209 15.5290087 7.92218705 15.5290087 7.92218705 17.47023 9.88291384 17.47023 9.88291384 23.2938937 7.92218705 23.2938937 7.92218705 25.235115 9.60841209 25.235115 9.11823039 27.1763362 6.94182366 27.1763362C6.57026593 27.1763362 6.2310602 27.3840469 6.06439842 27.7130839L4.10367164 31.5955264C3.95171531 31.8964157 3.96740112 32.2536004 4.14680763 32.5399306 4.32621413 32.8262607 4.64091078 33 4.98109687 33L29.4901817 33 53.0189031 33C53.3590892 33 53.6737859 32.8252901 53.8531924 32.53896zM43.4907513 13.5877874L46.8612407 13.5877874 46.371059 15.5290087 43.980933 15.5290087 43.4907513 13.5877874zM46.1563594 23.2938937L44.1956326 23.2938937 44.1956326 17.47023 46.1563594 17.47023 46.1563594 23.2938937zM43.980933 25.235115L46.371059 25.235115 46.8612407 27.1763362 43.4907513 27.1763362 43.980933 25.235115zM29.4754762 2.06469807L47.4573016 11.6455956 38.46933 11.6455956C38.2879628 11.2350273 38.0732632 10.8429006 37.837976 10.4643624 37.8115062 10.4216556 37.7869971 10.3789487 37.7595469 10.3372125 37.5193579 9.96352736 37.2585812 9.60537204 36.9703544 9.26954076 36.9556489 9.25206977 36.9389828 9.23654 36.9242773 9.22003962 36.6546774 8.90847361 36.3625291 8.61729042 36.0556753 8.34260761 36.0086179 8.29990075 35.9625408 8.25622327 35.9135226 8.21545762 35.5831402 7.9300981 35.2360915 7.66415079 34.8684553 7.42440996 34.8586516 7.41761569 34.8478676 7.41276263 34.838064 7.40596836 34.4851332 7.17787486 34.1145558 6.97598785 33.7322141 6.79351305 33.675353 6.76633595 33.6194723 6.73818825 33.5626112 6.71198176 33.162623 6.53047757 32.7518507 6.36935621 32.3253926 6.24123561 32.3195104 6.23929438 32.3136283 6.23832377 32.3067657 6.23638255 31.9106989 6.11796806 31.5018874 6.03158371 31.0862133 5.96364097 30.988177 5.94714059 30.8901406 5.93258143 30.7911239 5.91899288 30.3646658 5.86269746 29.9323256 5.82290242 29.4901817 5.82290242 29.0480378 5.82290242 28.6156975 5.86269746 28.1882591 5.91899288 28.0892424 5.93258143 27.9912061 5.94714059 27.8931697 5.96364097 27.4774957 6.03158371 27.0686841 6.11796806 26.6726173 6.23638255 26.6667351 6.23832377 26.6598726 6.23929438 26.6539904 6.24123561 26.2275323 6.36935621 25.8167601 6.53047757 25.4167718 6.71198176 25.3599107 6.73818825 25.30403 6.76633595 25.2471689 6.79254244 24.8648272 6.97501724 24.4942498 7.17690425 24.141319 7.40596836 24.1315154 7.41276263 24.1207314 7.41761569 24.1109278 7.42440996 23.7432915 7.66415079 23.3962428 7.9300981 23.0658604 8.21545762 23.0178226 8.25719388 22.9717455 8.29990075 22.9246881 8.34260761 22.6168539 8.61826103 22.325686 8.90944422 22.0551057 9.22101023 22.0404003 9.23848122 22.0237341 9.25401099 22.0090286 9.27051137 21.7208018 9.60731326 21.4600251 9.96546858 21.2198361 10.3391537 21.1933663 10.3808899 21.1678769 10.4235968 21.1423874 10.4653331 20.9071002 10.8438712 20.6924006 11.2359979 20.510053 11.6465662L10.3583901 11.6465662 29.4754762 2.06469807zM22.1100061 12.9268016C22.3805864 12.175549 22.7629281 11.4854448 23.2305614 10.8700777 23.2501687 10.8448418 23.2687956 10.8196059 23.2874225 10.7943701 23.520749 10.4944514 23.7736828 10.2120037 24.0472041 9.95090942 24.0560274 9.94217393 24.0648507 9.93537965 24.073674 9.92664416 24.346215 9.66846173 24.6373829 9.43066213 24.9432563 9.21421596 24.9569814 9.20450985 24.9707065 9.19286252 24.9844315 9.18315642 25.2922656 8.96865147 25.6157856 8.77744118 25.9520502 8.60855493 25.9844022 8.59205455 26.0167542 8.57749539 26.0500866 8.56196562 26.7128122 8.23972289 27.4255364 8.01065878 28.1666911 7.8844794 28.239238 7.87186146 28.3117849 7.86215535 28.3843318 7.85147864 28.7480466 7.79906566 29.1156829 7.76412368 29.4901817 7.76412368 29.8646805 7.76412368 30.2323168 7.79906566 30.5950512 7.85050803 30.6675981 7.86118474 30.740145 7.87089085 30.8126919 7.88350879 31.5538466 8.01065878 32.2655905 8.23875228 32.9292965 8.56099501 32.9616485 8.57652478 32.9949808 8.59108394 33.0273328 8.60758432 33.3635975 8.77647056 33.6871174 8.96768086 33.9949515 9.18218581 34.0086766 9.19189191 34.0224017 9.20256863 34.0361267 9.21324535 34.3420001 9.42969152 34.6331681 9.66749112 34.9057091 9.92567355 34.9145323 9.93343843 34.9233556 9.94120332 34.9321789 9.94993881 35.2057003 10.2110331 35.4576537 10.4944514 35.6919605 10.7933994 35.7115678 10.8186353 35.7301947 10.8438712 35.7488216 10.8691071 36.2174353 11.4854448 36.5987967 12.1745784 36.869377 12.925831 37.1644663 13.7421145 37.3330888 14.6156641 37.3330888 15.5290087 37.3330888 19.8103722 33.8145646 23.2938937 29.4901817 23.2938937 25.1657988 23.2938937 21.6472746 19.8103722 21.6472746 15.5290087 21.6472746 14.6156641 21.8158971 13.7421145 22.1100061 12.9268016zM19.8845812 13.5868168C19.7551732 14.2148019 19.6865478 14.8641404 19.6865478 15.5290087 19.6865478 20.8809557 24.0844579 25.235115 29.4901817 25.235115 34.8959054 25.235115 39.2938156 20.8809557 39.2938156 15.5290087 39.2938156 14.8641404 39.2251902 14.2148019 39.0957822 13.5868168L41.469242 13.5868168 41.9604041 15.5290087 40.274179 15.5290087 40.274179 17.47023 42.2349058 17.47023 42.2349058 23.2938937 40.274179 23.2938937 40.274179 25.235115 41.9604041 25.235115 41.4702224 27.1763362 16.5297776 27.1763362 16.0395959 25.235115 17.725821 25.235115 17.725821 23.2938937 15.7650942 23.2938937 15.7650942 17.47023 17.725821 17.47023 17.725821 15.5290087 16.0395959 15.5290087 16.5297776 13.5868168 19.8845812 13.5868168zM11.1387593 13.5877874L14.5092487 13.5877874 14.019067 15.5290087 11.628941 15.5290087 11.1387593 13.5877874zM11.8436406 17.47023L13.8043674 17.47023 13.8043674 23.2938937 11.8436406 23.2938937 11.8436406 17.47023zM11.628941 25.235115L14.019067 25.235115 14.5092487 27.1763362 11.1387593 27.1763362 11.628941 25.235115zM6.56732484 31.0587787L7.54768824 29.1175575 9.88291384 29.1175575 15.7650942 29.1175575 42.2349058 29.1175575 48.1170862 29.1175575 50.4523118 29.1175575 51.4326752 31.0587787 6.56732484 31.0587787zM.983333333 59L20.65 59C21.1937833 59 21.6333333 58.553 21.6333333 58L21.6333333 57 37.3666667 57 37.3666667 58C37.3666667 58.553 37.8062167 59 38.35 59L58.0166667 59C58.56045 59 59 58.553 59 58L59 56C59 51.717 56.04115 48.131 52.0950333 47.226 53.3114167 45.943 54.0833333 44.078 54.0833333 42 54.0833333 38.141 51.4371833 35 48.1833333 35 44.9294833 35 42.2833333 38.141 42.2833333 42 42.2833333 44.084 43.0591833 45.953 44.2814667 47.237 42.3983833 47.664 40.7198333 48.697 39.4769 50.199 38.3313167 47.712 36.10505 45.843 33.4107167 45.226 34.6280833 43.943 35.4 42.078 35.4 40 35.4 36.141 32.75385 33 29.5 33 26.24615 33 23.6 36.141 23.6 40 23.6 42.078 24.3719167 43.943 25.5883 45.226 22.89495 45.843 20.6686833 47.712 19.5221167 50.199 18.2791833 48.697 16.6006333 47.663 14.71755 47.237 15.9408167 45.953 16.7166667 44.084 16.7166667 42 16.7166667 38.141 14.0705167 35 10.8166667 35 7.56281667 35 4.91666667 38.141 4.91666667 42 4.91666667 44.078 5.68858333 45.943 6.90496667 47.226 2.95885 48.131 0 51.717 0 56L0 58C0 58.553.43955 59 .983333333 59zM48.1833333 37C50.3525667 37 52.1166667 39.243 52.1166667 42 52.1166667 44.757 50.3525667 47 48.1833333 47 46.0141 47 44.25 44.757 44.25 42 44.25 39.243 46.0141 37 48.1833333 37zM40.2085 52.6C41.4258667 50.371 43.7003167 49 46.2166667 49L50.15 49C53.9446833 49 57.0333333 52.141 57.0333333 56L57.0333333 57 39.3333333 57C39.8771167 57 40.3166667 56.553 40.3166667 56L40.3166667 54C40.3166667 53.569 40.27635 53.148 40.2183333 52.733 40.2124333 52.688 40.2153833 52.644 40.2085 52.6zM29.5 35C31.6692333 35 33.4333333 37.243 33.4333333 40 33.4333333 42.757 31.6692333 45 29.5 45 27.3307667 45 25.5666667 42.757 25.5666667 40 25.5666667 37.243 27.3307667 35 29.5 35zM27.5333333 47L31.4666667 47C34.8277 47 37.6292167 49.465 38.2270833 52.709 38.2634667 52.909 38.2959167 53.11 38.3155833 53.312 38.3372167 53.538 38.35 53.768 38.35 54L38.35 55 20.65 55 20.65 54C20.65 53.768 20.6627833 53.538 20.6844167 53.311 20.7040833 53.113 20.73555 52.916 20.77095 52.72 21.3648833 49.47 24.1683667 47 27.5333333 47zM10.8166667 37C12.9859 37 14.75 39.243 14.75 42 14.75 44.757 12.9859 47 10.8166667 47 8.64743333 47 6.88333333 44.757 6.88333333 42 6.88333333 39.243 8.64743333 37 10.8166667 37zM1.96666667 56C1.96666667 52.141 5.05531667 49 8.85 49L12.7833333 49C15.2996833 49 17.5741333 50.371 18.7915 52.6 18.7846167 52.644 18.7875667 52.689 18.7816667 52.733 18.72365 53.148 18.6833333 53.569 18.6833333 54L18.6833333 56C18.6833333 56.553 19.1228833 57 19.6666667 57L1.96666667 57 1.96666667 56z"/>
      <path d="M30,19 C29.448,19 29,18.552 29,18 L27,18 C27,19.302 27.839,20.402 29,20.816 L29,22 L31,22 L31,20.816 C32.161,20.402 33,19.302 33,18 C33,17.734 32.895,17.48 32.707,17.293 L29.063,13.649 C29.206,13.271 29.572,13 30,13 C30.552,13 31,13.448 31,14 L33,14 C33,12.698 32.161,11.598 31,11.184 L31,10 L29,10 L29,11.184 C27.839,11.598 27,12.698 27,14 C27,14.266 27.105,14.52 27.293,14.707 L30.937,18.351 C30.794,18.729 30.428,19 30,19 Z"/>
    </g>
  </g>
</svg>
