<svg xmlns="http://www.w3.org/2000/svg" width="120" height="120" viewBox="0 0 120 120">
  <g fill="none" fill-rule="evenodd">
    <circle cx="60" cy="60" r="60" fill="#FFF"/>
    <path fill="#002846" fill-rule="nonzero" stroke="#F6F6F6" stroke-width=".5" d="M54.4121306,7.21111111 C51.8822484,7.21111111 49.8242613,9.26955556 49.8242613,11.8 L49.8242613,27.6447778 L44.9217952,32.5483333 C44.6989558,31.9386667 44.3515885,31.3617778 43.8600311,30.8766667 C42.0707621,29.087 39.1607421,29.087 37.371473,30.8766667 L29.5,38.7498889 L21.628527,30.8766667 C19.8392579,29.087 16.9292379,29.087 15.1399689,30.8766667 C14.6484115,31.3683333 14.3010442,31.9386667 14.0782048,32.5483333 L9.17573872,27.6447778 L9.17573872,11.8 C9.17573872,9.26955556 7.11775161,7.21111111 4.58786936,7.21111111 C2.05798711,7.21111111 0,9.26955556 0,11.8 L0,34.0888889 C0,34.3642222 0.0852032882,34.6264444 0.242501666,34.8493333 L13.1081982,52.864 L13.1081982,57.6888889 C13.1081982,58.41 13.6980671,59 14.419018,59 L29.4934459,59 C29.4934459,59 29.5,59 29.5,59 C29.5,59 29.5065541,59 29.5065541,59 L44.580982,59 C45.3019329,59 45.8918018,58.41 45.8918018,57.6888889 L45.8918018,52.864 L58.7574983,34.8493333 C58.9147967,34.6264444 59,34.3576667 59,34.0888889 L59,11.8 C59,9.26955556 56.9420129,7.21111111 54.4121306,7.21111111 Z M15.4873361,51.684 L2.62163964,33.6693333 L2.62163964,11.8 C2.62163964,10.7183333 3.50644301,9.83333333 4.58786936,9.83333333 C5.66929571,9.83333333 6.55409909,10.7183333 6.55409909,11.8 L6.55409909,28.1888889 C6.55409909,28.2741111 6.56065319,28.3593333 6.58031549,28.4445556 C6.58686958,28.4838889 6.59997778,28.5166667 6.61308598,28.556 C6.62619418,28.6018889 6.63930238,28.6477778 6.65241058,28.6871111 C6.67207287,28.733 6.69828927,28.7723333 6.71795157,28.8116667 C6.73761386,28.8444444 6.75072206,28.8772222 6.77038436,28.91 C6.81626305,28.9821111 6.87524994,29.0476667 6.93423684,29.1132222 L14.7860475,36.9667778 C14.8974672,37.1044444 15.0088869,37.2355556 15.1399689,37.3666667 L20.0227727,42.2505556 C20.5339924,42.7618889 21.366363,42.7618889 21.8775828,42.2505556 C21.8841369,42.244 21.8841369,42.244 21.8841369,42.2374444 C21.890691,42.2308889 21.890691,42.2308889 21.8972451,42.2243333 C22.4084648,41.713 22.4084648,40.8804444 21.8972451,40.3691111 L16.7850478,35.2557778 C16.2410575,34.4887778 16.3000444,33.4136667 16.9882248,32.7253333 C17.7550544,31.9583333 19.0003333,31.9583333 19.7671629,32.7253333 L28.176072,41.1361111 L28.176072,56.3777778 L15.7232837,56.3777778 L15.7232837,52.4444444 C15.7298378,52.1691111 15.6446345,51.9068889 15.4873361,51.684 Z M56.3783604,33.6693333 L43.5126639,51.684 C43.3553655,51.9068889 43.2701622,52.1756667 43.2701622,52.4444444 L43.2701622,56.3777778 L30.8173739,56.3777778 L30.8173739,41.1426667 L39.226283,32.7318889 C39.9931126,31.9648889 41.2383915,31.9648889 42.0052211,32.7318889 C42.6934015,33.4202222 42.7589425,34.4887778 42.2149522,35.2557778 L37.1027549,40.3691111 C36.5915352,40.8804444 36.5915352,41.713 37.1027549,42.2243333 C37.109309,42.2308889 37.1158631,42.2308889 37.1158631,42.2374444 C37.1224172,42.244 37.1224172,42.244 37.1224172,42.2505556 C37.633637,42.7618889 38.4660076,42.7618889 38.9772273,42.2505556 L43.8600311,37.3666667 C43.984559,37.2421111 44.1025328,37.1044444 44.2139525,36.9667778 L52.0657632,29.1132222 C52.1247501,29.0542222 52.1837369,28.9821111 52.2296156,28.91 C52.2492779,28.8772222 52.2623861,28.8444444 52.2820484,28.8116667 C52.3017107,28.7723333 52.3279271,28.733 52.3475894,28.6871111 C52.3672517,28.6412222 52.3738058,28.6018889 52.386914,28.556 C52.4000222,28.5166667 52.4131304,28.4838889 52.4196845,28.4445556 C52.4393468,28.3593333 52.4459009,28.2741111 52.4459009,28.1888889 L52.4459009,11.8 C52.4459009,10.7183333 53.3307043,9.83333333 54.4121306,9.83333333 C55.493557,9.83333333 56.3783604,10.7183333 56.3783604,11.8 L56.3783604,33.6693333 Z M29.0870918,26.1566667 C29.2181737,26.196 29.3558098,26.2222222 29.4934459,26.2222222 C29.631082,26.2222222 29.7687181,26.2025556 29.8998,26.1566667 C37.109309,23.8228889 41.9462342,17.523 41.9462342,10.4954444 L41.9462342,5.9 C41.9462342,5.17888889 41.3563653,4.58888889 40.6354144,4.58888889 C38.826483,4.58888889 37.3583648,3.12044444 37.3583648,1.31111111 C37.3583648,0.59 36.7684959,0 36.047545,0 L22.9393468,0 C22.2183959,0 21.628527,0.59 21.628527,1.31111111 C21.628527,3.12044444 20.1604088,4.58888889 18.3514774,4.58888889 C17.6305265,4.58888889 17.0406576,5.17888889 17.0406576,5.9 L17.0406576,10.4954444 C17.0406576,17.5295556 21.8841369,23.8228889 29.0870918,26.1566667 Z M19.6622973,7.06688889 C21.8644746,6.56211111 23.6013108,4.82488889 24.1059764,2.62222222 L34.8874695,2.62222222 C35.3921351,4.82488889 37.1289713,6.56211111 39.3311486,7.06688889 L39.3311486,10.4954444 C39.3311486,16.2577778 35.3986892,21.4432222 29.5,23.5278889 C23.6013108,21.4432222 19.6688514,16.2577778 19.6688514,10.4954444 L19.6688514,7.06688889 L19.6622973,7.06688889 Z M24.1649633,14.2714444 C23.6537436,13.7601111 23.6537436,12.9275556 24.1649633,12.4162222 C24.6761831,11.9048889 25.5085537,11.9048889 26.0197734,12.4162222 L27.8745834,14.2714444 L32.9736725,9.17122222 C33.4848922,8.65988889 34.3172628,8.65988889 34.8284826,9.17122222 C35.3397023,9.68255556 35.3397023,10.5151111 34.8284826,11.0264444 L28.8052655,17.051 C28.5562097,17.3001111 28.2285048,17.4377778 27.8811375,17.4377778 C27.5337703,17.4377778 27.1995112,17.3001111 26.9570096,17.051 L24.1649633,14.2714444 Z" transform="translate(31 30)"/>
  </g>
</svg>
