<svg xmlns="http://www.w3.org/2000/svg" width="120" height="120" viewBox="0 0 120 120">
  <g fill="none" fill-rule="evenodd">
    <circle cx="60" cy="60" r="60" fill="#FFF"/>
    <g fill="#072844" fill-rule="nonzero" transform="translate(31 30)">
      <path d="M20.6371645 51.1333333L26.5371645 51.1333333C27.0802445 51.1333333 27.5204979 50.69308 27.5204979 50.15L27.5204979 44.25C27.5204979 43.70692 27.0802445 43.2666667 26.5371645 43.2666667L20.6371645 43.2666667C20.0940845 43.2666667 19.6538312 43.70692 19.6538312 44.25L19.6538312 50.15C19.6538312 50.69308 20.0940845 51.1333333 20.6371645 51.1333333zM21.6204979 45.2333333L25.5538312 45.2333333 25.5538312 49.1666667 21.6204979 49.1666667 21.6204979 45.2333333zM36.3704979 43.2666667L30.4704979 43.2666667C29.9274179 43.2666667 29.4871645 43.70692 29.4871645 44.25L29.4871645 50.15C29.4871645 50.69308 29.9274179 51.1333333 30.4704979 51.1333333L36.3704979 51.1333333C36.9135779 51.1333333 37.3538312 50.69308 37.3538312 50.15L37.3538312 44.25C37.3538312 43.70692 36.9135779 43.2666667 36.3704979 43.2666667zM35.3871645 49.1666667L31.4538312 49.1666667 31.4538312 45.2333333 35.3871645 45.2333333 35.3871645 49.1666667zM26.5371645 33.4333333L20.6371645 33.4333333C20.0940845 33.4333333 19.6538312 33.8735867 19.6538312 34.4166667L19.6538312 40.3166667C19.6538312 40.8597467 20.0940845 41.3 20.6371645 41.3L26.5371645 41.3C27.0802445 41.3 27.5204979 40.8597467 27.5204979 40.3166667L27.5204979 34.4166667C27.5204979 33.8735867 27.0802445 33.4333333 26.5371645 33.4333333zM25.5538312 39.3333333L21.6204979 39.3333333 21.6204979 35.4 25.5538312 35.4 25.5538312 39.3333333zM36.3704979 33.4333333L30.4704979 33.4333333C29.9274179 33.4333333 29.4871645 33.8735867 29.4871645 34.4166667L29.4871645 40.3166667C29.4871645 40.8597467 29.9274179 41.3 30.4704979 41.3L36.3704979 41.3C36.9135779 41.3 37.3538312 40.8597467 37.3538312 40.3166667L37.3538312 34.4166667C37.3538312 33.8735867 36.9135779 33.4333333 36.3704979 33.4333333zM35.3871645 39.3333333L31.4538312 39.3333333 31.4538312 35.4 35.3871645 35.4 35.3871645 39.3333333zM10.8038312 31.4666667L16.7038312 31.4666667C17.2469112 31.4666667 17.6871645 31.0264133 17.6871645 30.4833333L17.6871645 24.5833333C17.6871645 24.0402533 17.2469112 23.6 16.7038312 23.6L10.8038312 23.6C10.2607512 23.6 9.82049787 24.0402533 9.82049787 24.5833333L9.82049787 30.4833333C9.82049787 31.0264133 10.2607512 31.4666667 10.8038312 31.4666667zM11.7871645 25.5666667L15.7204979 25.5666667 15.7204979 29.5 11.7871645 29.5 11.7871645 25.5666667zM26.5371645 23.6L20.6371645 23.6C20.0940845 23.6 19.6538312 24.0402533 19.6538312 24.5833333L19.6538312 30.4833333C19.6538312 31.0264133 20.0940845 31.4666667 20.6371645 31.4666667L26.5371645 31.4666667C27.0802445 31.4666667 27.5204979 31.0264133 27.5204979 30.4833333L27.5204979 24.5833333C27.5204979 24.0402533 27.0802445 23.6 26.5371645 23.6zM25.5538312 29.5L21.6204979 29.5 21.6204979 25.5666667 25.5538312 25.5666667 25.5538312 29.5zM36.3704979 23.6L30.4704979 23.6C29.9274179 23.6 29.4871645 24.0402533 29.4871645 24.5833333L29.4871645 30.4833333C29.4871645 31.0264133 29.9274179 31.4666667 30.4704979 31.4666667L36.3704979 31.4666667C36.9135779 31.4666667 37.3538312 31.0264133 37.3538312 30.4833333L37.3538312 24.5833333C37.3538312 24.0402533 36.9135779 23.6 36.3704979 23.6zM35.3871645 29.5L31.4538312 29.5 31.4538312 25.5666667 35.3871645 25.5666667 35.3871645 29.5zM10.8038312 11.8L46.2038312 11.8C46.7469112 11.8 47.1871645 11.3597467 47.1871645 10.8166667L47.1871645 4.91666667C47.1871645 4.37358666 46.7469112 3.93333333 46.2038312 3.93333333L10.8038312 3.93333333C10.2607512 3.93333333 9.82049787 4.37358666 9.82049787 4.91666667L9.82049787 10.8166667C9.82049787 11.3597467 10.2607512 11.8 10.8038312 11.8zM11.7871645 5.9L45.2204979 5.9 45.2204979 9.83333333 11.7871645 9.83333333 11.7871645 5.9zM46.2038312 23.6L40.3038312 23.6C39.7607512 23.6 39.3204979 24.0402533 39.3204979 24.5833333L39.3204979 30.4833333C39.3204979 31.0264133 39.7607512 31.4666667 40.3038312 31.4666667L46.2038312 31.4666667C46.7469112 31.4666667 47.1871645 31.0264133 47.1871645 30.4833333L47.1871645 24.5833333C47.1871645 24.0402533 46.7469112 23.6 46.2038312 23.6zM45.2204979 29.5L41.2871645 29.5 41.2871645 25.5666667 45.2204979 25.5666667 45.2204979 29.5zM46.2038312 33.4333333L40.3038312 33.4333333C39.7607512 33.4333333 39.3204979 33.8735867 39.3204979 34.4166667L39.3204979 50.15C39.3204979 50.69308 39.7607512 51.1333333 40.3038312 51.1333333L46.2038312 51.1333333C46.7469112 51.1333333 47.1871645 50.69308 47.1871645 50.15L47.1871645 34.4166667C47.1871645 33.8735867 46.7469112 33.4333333 46.2038312 33.4333333zM45.2204979 49.1666667L41.2871645 49.1666667 41.2871645 35.4 45.2204979 35.4 45.2204979 49.1666667zM10.8038312 21.6333333L16.7038312 21.6333333C17.2469112 21.6333333 17.6871645 21.19308 17.6871645 20.65L17.6871645 14.75C17.6871645 14.20692 17.2469112 13.7666667 16.7038312 13.7666667L10.8038312 13.7666667C10.2607512 13.7666667 9.82049787 14.20692 9.82049787 14.75L9.82049787 20.65C9.82049787 21.19308 10.2607512 21.6333333 10.8038312 21.6333333zM11.7871645 15.7333333L15.7204979 15.7333333 15.7204979 19.6666667 11.7871645 19.6666667 11.7871645 15.7333333zM26.5371645 13.7666667L20.6371645 13.7666667C20.0940845 13.7666667 19.6538312 14.20692 19.6538312 14.75L19.6538312 20.65C19.6538312 21.19308 20.0940845 21.6333333 20.6371645 21.6333333L26.5371645 21.6333333C27.0802445 21.6333333 27.5204979 21.19308 27.5204979 20.65L27.5204979 14.75C27.5204979 14.20692 27.0802445 13.7666667 26.5371645 13.7666667zM25.5538312 19.6666667L21.6204979 19.6666667 21.6204979 15.7333333 25.5538312 15.7333333 25.5538312 19.6666667zM36.3704979 13.7666667L30.4704979 13.7666667C29.9274179 13.7666667 29.4871645 14.20692 29.4871645 14.75L29.4871645 20.65C29.4871645 21.19308 29.9274179 21.6333333 30.4704979 21.6333333L36.3704979 21.6333333C36.9135779 21.6333333 37.3538312 21.19308 37.3538312 20.65L37.3538312 14.75C37.3538312 14.20692 36.9135779 13.7666667 36.3704979 13.7666667zM35.3871645 19.6666667L31.4538312 19.6666667 31.4538312 15.7333333 35.3871645 15.7333333 35.3871645 19.6666667zM46.2038312 13.7666667L40.3038312 13.7666667C39.7607512 13.7666667 39.3204979 14.20692 39.3204979 14.75L39.3204979 20.65C39.3204979 21.19308 39.7607512 21.6333333 40.3038312 21.6333333L46.2038312 21.6333333C46.7469112 21.6333333 47.1871645 21.19308 47.1871645 20.65L47.1871645 14.75C47.1871645 14.20692 46.7469112 13.7666667 46.2038312 13.7666667zM45.2204979 19.6666667L41.2871645 19.6666667 41.2871645 15.7333333 45.2204979 15.7333333 45.2204979 19.6666667z"/>
      <path d="M9.82049787,59 C12.9097308,58.9970603 15.8172943,57.5398176 17.6684812,55.0666667 L50.1371645,55.0666667 C50.6802445,55.0666667 51.1204979,54.6264133 51.1204979,54.0833333 L51.1204979,0.983333333 C51.1204979,0.440253329 50.6802445,0 50.1371645,0 L6.87049787,0 C6.32741786,0 5.88716453,0.440253329 5.88716453,0.983333333 L5.88716453,40.1603167 C1.62726193,42.0272686 -0.742023599,46.6234567 0.208523422,51.1763393 C1.15907044,55.7292219 5.16945101,58.9934687 9.82049787,59 Z M7.8538312,1.96666667 L49.1538312,1.96666667 L49.1538312,53.1 L18.8268479,53.1 C20.6645191,48.9179594 19.3651587,44.0208724 15.6959145,41.3 L16.7038312,41.3 C17.2469112,41.3 17.6871645,40.8597467 17.6871645,40.3166667 L17.6871645,34.4166667 C17.6871645,33.8735867 17.2469112,33.4333333 16.7038312,33.4333333 L10.8038312,33.4333333 C10.2607512,33.4333333 9.82049787,33.8735867 9.82049787,34.4166667 L9.82049787,39.3333333 C9.15999542,39.3325592 8.50110109,39.3984486 7.8538312,39.53 L7.8538312,1.96666667 Z M11.7871645,39.3333333 L11.7871645,35.4 L15.7204979,35.4 L15.7204979,39.3333333 L11.7871645,39.3333333 Z M9.82049787,41.3 C14.1651379,41.3 17.6871645,44.8220266 17.6871645,49.1666667 C17.6871645,53.5113067 14.1651379,57.0333333 9.82049787,57.0333333 C5.47585783,57.0333333 1.9538312,53.5113067 1.9538312,49.1666667 C1.95870842,44.8240484 5.47787965,41.3048772 9.82049787,41.3 L9.82049787,41.3 Z"/>
      <path d="M9.82049787 52.1166667C9.27741786 52.1166667 8.83716453 51.6764133 8.83716453 51.1333333L6.87049787 51.1333333C6.87566174 52.3790057 7.66271952 53.487183 8.83716453 53.9024L8.83716453 55.0666667 10.8038312 55.0666667 10.8038312 53.9024C12.1574362 53.4256285 12.9698133 52.0420866 12.7266287 50.627725 12.4834441 49.2133633 11.2556112 48.180614 9.82049787 48.1833333 9.27741786 48.1833333 8.83716453 47.74308 8.83716453 47.2 8.83716453 46.65692 9.27741786 46.2166667 9.82049787 46.2166667 10.3635779 46.2166667 10.8038312 46.65692 10.8038312 47.2L12.7704979 47.2C12.765334 45.9543277 11.9782762 44.8461503 10.8038312 44.4309333L10.8038312 43.2666667 8.83716453 43.2666667 8.83716453 44.4309333C7.48355951 44.9077048 6.6711824 46.2912467 6.914367 47.7056084 7.1575516 49.11997 8.38538456 50.1527193 9.82049787 50.15 10.3635779 50.15 10.8038312 50.5902533 10.8038312 51.1333333 10.8038312 51.6764133 10.3635779 52.1166667 9.82049787 52.1166667L9.82049787 52.1166667zM56.9506812 2.5842C56.8016887 2.21018854 56.4397603 1.96477839 56.0371645 1.96477839 55.6345688 1.96477839 55.2726404 2.21018854 55.1236479 2.5842L53.1569812 7.50086667C53.1108978 7.61732034 53.0871645 7.74142637 53.0871645 7.86666667L53.0871645 56.05C53.0871645 57.67924 54.4079245 59 56.0371645 59 57.6664045 59 58.9871645 57.67924 58.9871645 56.05L58.9871645 7.86666667C58.9871645 7.74142637 58.9634312 7.61732034 58.9173479 7.50086667L56.9506812 2.5842zM55.0538312 10.8166667L57.0204979 10.8166667 57.0204979 53.1 55.0538312 53.1 55.0538312 10.8166667zM55.0538312 8.05546667L56.0371645 5.59713333 57.0204979 8.05546667 57.0204979 8.85 55.0538312 8.85 55.0538312 8.05546667zM57.0204979 56.05C57.0204979 56.59308 56.5802445 57.0333333 56.0371645 57.0333333 55.4940845 57.0333333 55.0538312 56.59308 55.0538312 56.05L55.0538312 55.0666667 57.0204979 55.0666667 57.0204979 56.05z"/>
    </g>
  </g>
</svg>
