<svg xmlns="http://www.w3.org/2000/svg" width="120" height="120" viewBox="0 0 120 120">
  <g fill="none" fill-rule="evenodd">
    <circle cx="60" cy="60" r="60" fill="#FFF"/>
    <g fill="#002848" fill-rule="nonzero" transform="translate(31 30)">
      <path d="M11 42.8333333C11 42.3731056 10.6162343 42 10.1428571 42L5.85714286 42C5.38376573 42 5 42.3731056 5 42.8333333L5 46.1666667C5 46.6268944 5.38376573 47 5.85714286 47L10.1428571 47C10.6162343 47 11 46.6268944 11 46.1666667L11 42.8333333zM9.28571429 45.3333333L6.71428571 45.3333333 6.71428571 43.6666667 9.28571429 43.6666667 9.28571429 45.3333333zM10.1428571 50L5.85714286 50C5.38376573 50 5 50.3731056 5 50.8333333L5 54.1666667C5 54.6268944 5.38376573 55 5.85714286 55L10.1428571 55C10.6162343 55 11 54.6268944 11 54.1666667L11 50.8333333C11 50.3731056 10.6162343 50 10.1428571 50L10.1428571 50zM9.28571429 53.3333333L6.71428571 53.3333333 6.71428571 51.6666667 9.28571429 51.6666667 9.28571429 53.3333333zM18.1428571 50L13.8571429 50C13.3837657 50 13 50.3731056 13 50.8333333L13 54.1666667C13 54.6268944 13.3837657 55 13.8571429 55L18.1428571 55C18.6162343 55 19 54.6268944 19 54.1666667L19 50.8333333C19 50.3731056 18.6162343 50 18.1428571 50L18.1428571 50zM17.2857143 53.3333333L14.7142857 53.3333333 14.7142857 51.6666667 17.2857143 51.6666667 17.2857143 53.3333333zM19 42.8333333C19 42.3731056 18.6162343 42 18.1428571 42L13.8571429 42C13.3837657 42 13 42.3731056 13 42.8333333L13 46.1666667C13 46.6268944 13.3837657 47 13.8571429 47L18.1428571 47C18.6162343 47 19 46.6268944 19 46.1666667L19 42.8333333zM17.2857143 45.3333333L14.7142857 45.3333333 14.7142857 43.6666667 17.2857143 43.6666667 17.2857143 45.3333333zM26.1428571 50L21.8571429 50C21.3837657 50 21 50.3731056 21 50.8333333L21 54.1666667C21 54.6268944 21.3837657 55 21.8571429 55L26.1428571 55C26.6162343 55 27 54.6268944 27 54.1666667L27 50.8333333C27 50.3731056 26.6162343 50 26.1428571 50L26.1428571 50zM25.2857143 53.3333333L22.7142857 53.3333333 22.7142857 51.6666667 25.2857143 51.6666667 25.2857143 53.3333333zM27 42.8333333C27 42.3731056 26.6162343 42 26.1428571 42L21.8571429 42C21.3837657 42 21 42.3731056 21 42.8333333L21 46.1666667C21 46.6268944 21.3837657 47 21.8571429 47L26.1428571 47C26.6162343 47 27 46.6268944 27 46.1666667L27 42.8333333zM25.2857143 45.3333333L22.7142857 45.3333333 22.7142857 43.6666667 25.2857143 43.6666667 25.2857143 45.3333333zM11 35.8333333C11 35.3731056 10.6162343 35 10.1428571 35L5.85714286 35C5.38376573 35 5 35.3731056 5 35.8333333L5 39.1666667C5 39.6268944 5.38376573 40 5.85714286 40L10.1428571 40C10.6162343 40 11 39.6268944 11 39.1666667L11 35.8333333zM9.28571429 38.3333333L6.71428571 38.3333333 6.71428571 36.6666667 9.28571429 36.6666667 9.28571429 38.3333333zM19 35.8333333C19 35.3731056 18.6162343 35 18.1428571 35L13.8571429 35C13.3837657 35 13 35.3731056 13 35.8333333L13 39.1666667C13 39.6268944 13.3837657 40 13.8571429 40L18.1428571 40C18.6162343 40 19 39.6268944 19 39.1666667L19 35.8333333zM17.2857143 38.3333333L14.7142857 38.3333333 14.7142857 36.6666667 17.2857143 36.6666667 17.2857143 38.3333333zM27 35.8333333C27 35.3731056 26.6162343 35 26.1428571 35L21.8571429 35C21.3837657 35 21 35.3731056 21 35.8333333L21 39.1666667C21 39.6268944 21.3837657 40 21.8571429 40L26.1428571 40C26.6162343 40 27 39.6268944 27 39.1666667L27 35.8333333zM25.2857143 38.3333333L22.7142857 38.3333333 22.7142857 36.6666667 25.2857143 36.6666667 25.2857143 38.3333333zM28 32.047619L28 23.952381C28 23.4264064 27.5867138 23 27.0769231 23L4.92307692 23C4.41328617 23 4 23.4264064 4 23.952381L4 32.047619C4 32.5735936 4.41328617 33 4.92307692 33L27.0769231 33C27.5867138 33 28 32.5735936 28 32.047619zM26.1538462 31.0952381L5.84615385 31.0952381 5.84615385 24.9047619 26.1538462 24.9047619 26.1538462 31.0952381z"/>
      <path d="M4.4 59L27.6 59C28.6665194 59 29.6962761 58.6069991 30.4958446 57.8953402 30.0487361 57.4774776 29.6366467 57.0230672 29.2637851 56.53675 28.800196 56.9366854 28.2101151 57.1563983 27.6 57.15625L4.4 57.15625C2.98051385 57.1546091 1.83019883 55.9947456 1.82857143 54.5634766L1.82857143 15.9599609C1.83044783 14.6403924 2.81383907 13.5322056 4.11428571 13.3841823L4.11428571 20.28125C4.11431096 20.790377 4.52363583 21.2030995 5.02857143 21.203125L26.9714286 21.203125C27.4763642 21.2030995 27.885689 20.790377 27.8857143 20.28125L27.8857143 13.3841823C29.1861609 13.5322056 30.1695522 14.6403924 30.1714286 15.9599609L30.1714286 41.9807033C30.726612 41.4195081 31.3396067 40.9196551 32 40.489635L32 15.9599609C31.9973747 13.510834 30.0289646 11.5260846 27.6 11.5234375L24.2285714 11.5234375 24.2285714 1.84375C24.2274956.825924667 23.4094461.00108479244 22.4 0L9.6 0C8.59055386.00108479244 7.77250443.825924667 7.77142857 1.84375L7.77142857 11.5234375 4.4 11.5234375C1.97106771 11.5261632.00270326842 13.5108666 0 15.9599609L0 54.5634766C.00270326842 57.0125709 1.97106771 58.9972743 4.4 59zM24.2285714 13.3671875L26.0571429 13.3671875 26.0571429 16.1328125 24.2285714 16.1328125 24.2285714 13.3671875zM19.2 1.84375L22.4 1.84375 22.4011154 16.1328125 19.2 16.1328125 19.2 1.84375zM9.6 1.84375L17.3714286 1.84375 17.3714286 16.1328125 9.6 16.1328125 9.6 1.84375zM5.94285714 13.3671875L7.77142857 13.3671875 7.77142857 16.1328125 5.94285714 16.1328125 5.94285714 13.3671875zM5.94285714 17.9765625L26.0571429 17.9765625 26.0571429 19.359375 5.94285714 19.359375 5.94285714 17.9765625zM50.2453139 44C49.9476684 44.005496 49.709172 44.3046582 49.7107464 44.6705453L49.7107464 45.4847921C49.4685475 45.5183355 49.2301542 45.5850243 49 45.6836182 49.1571584 46.157424 49.2905954 46.6426 49.3995638 47.1364294 49.6641414 46.9858481 49.9539554 46.9143651 50.2453139 46.9278237 50.8456939 46.9214498 51.4262285 47.1918023 51.8724433 47.685571 52.0009637 47.8640478 52.1795503 47.9763303 52.372505 48 52.7159212 48.003414 52.9967173 47.6643316 53 47.2422268 52.9987572 47.079146 52.9582588 46.9201684 52.883611 46.7853389 52.3585686 46.0234628 51.6027535 45.5588519 50.7918651 45.4995113L50.7918651 44.6705453C50.791879 44.4924841 50.7342681 44.3217292 50.6317376 44.1959382 50.529207 44.0701472 50.3901789 43.9996527 50.2453139 44L50.2453139 44zM49.6865257 53.8624453L49.6865257 54.4815074C49.6847831 54.6661679 49.7832906 54.8375442 49.9445364 54.9303761 50.1057822 55.023208 50.3049496 55.023208 50.4661954 54.9303761 50.6274412 54.8375442 50.7259487 54.6661679 50.7242061 54.4815074L50.7242061 53.8624453C52.2188486 53.7190534 53 52.923418 53 51.7090233 53 49.7045283 50.8547843 49.5097319 49.6786048 49 49.7142749 49.3385075 49.7322004 49.6786179 49.7323091 50.0189625 49.7323091 50.131048 49.7275336 50.2420085 49.723742 50.3531809 50.7234281 50.691956 51.7057781 50.9167179 51.7057781 51.7090233 51.7057781 52.3935881 51.214741 52.7249697 50.199625 52.7249697 49.9219743 52.7252987 49.6467232 52.6740798 49.3881406 52.5739682 49.2825326 52.9599266 49.1529048 53.3390459 49 53.7091532 49.2233784 53.7818166 49.4532683 53.833148 49.6865257 53.8624453L49.6865257 53.8624453z"/>
      <path d="M49.026805,41 C47.6273191,41.0009628 46.2477601,41.3329022 45,41.9688993 C45.4671686,42.3910253 45.8969244,42.8530555 46.2844354,43.3497854 C49.2861399,42.1012936 52.749251,43.0319117 54.7275131,45.6186357 C56.7057752,48.2053598 56.7057824,51.8030252 54.7275308,54.3897573 C52.7492792,56.9764894 49.2861718,57.9071216 46.2844623,56.658642 C45.8969468,57.1553793 45.4671784,57.6174101 45,58.0395281 C48.3124039,59.7120053 52.308931,59.166438 55.0557614,56.6668126 C57.8025918,54.1671873 58.7332756,50.2289754 57.397478,46.7577796 C56.0616805,43.2865837 52.7348691,40.9982321 49.026805,41 L49.026805,41 Z"/>
      <path d="M30,50 C30,54.9705627 34.0294373,59 39,59 C43.9705627,59 48,54.9705627 48,50 C48,45.0294373 43.9705627,41 39,41 C34.0317288,41.0055279 30.0055279,45.0317288 30,50 Z M39,42.8 C42.9764502,42.8 46.2,46.0235498 46.2,50 C46.2,53.9764502 42.9764502,57.2 39,57.2 C35.0235498,57.2 31.8,53.9764502 31.8,50 C31.8045456,46.0254342 35.0254342,42.8045456 39,42.8 Z"/>
      <path d="M37.5194328,53.6297376 L37.5194328,54.3754402 C37.5176024,54.5978764 37.6210775,54.8043109 37.7904546,54.9161333 C37.9598318,55.0279556 38.1690429,55.0279556 38.33842,54.9161333 C38.5077971,54.8043109 38.6112722,54.5978764 38.6094418,54.3754402 L38.6094418,53.6297376 C40.1794565,53.4570122 41,52.4986151 41,51.0357937 C41,47.7098745 36.7226089,48.5207818 36.7226089,46.7777536 C36.7226089,46.2459485 37.0857679,45.7266972 38.0584328,45.7266972 C38.6637619,45.7207614 39.2490819,45.9725333 39.698975,46.4323668 C39.8285548,46.5985774 40.0086136,46.703143 40.2031588,46.7251618 C40.5494059,46.7283653 40.8325167,46.4125871 40.8358264,46.0194923 C40.8345734,45.8676195 40.7937411,45.719568 40.718478,45.5940049 C40.1891076,44.8844903 39.4270621,44.4518108 38.6094893,44.3965485 L38.6094893,43.6245598 C38.6113198,43.4021236 38.5078447,43.1956891 38.3384676,43.0838667 C38.1690904,42.9720444 37.9598793,42.9720444 37.7905022,43.0838667 C37.6211251,43.1956891 37.51765,43.4021236 37.5194804,43.6245598 L37.5194804,44.3828458 C36.0194873,44.5692641 35.3631649,45.5940098 35.3631649,46.7777586 C35.3631649,49.9847225 39.640556,49.0926445 39.640556,51.0357986 C39.640556,51.8604037 39.1247567,52.2595755 38.0584501,52.2595755 C37.322827,52.2356072 36.6280555,51.8701502 36.136334,51.2485226 C36.0107403,51.069813 35.8223414,50.9627583 35.6210624,50.9557276 C35.394311,50.9595681 35.1868462,51.1013708 35.0777497,51.3270834 C34.9686531,51.5527959 34.9747354,51.8276385 35.0936779,52.0468465 C35.6609812,52.949933 36.5465451,53.5277948 37.5194328,53.6297376 L37.5194328,53.6297376 Z"/>
    </g>
  </g>
</svg>
